<svg width="200" height="37" viewBox="0 0 200 37" fill="none" xmlns="http://www.w3.org/2000/svg">
<path d="M185.905 28.228C178.12 28.228 171.81 21.8795 171.81 14.0951C171.81 9.03145 174.531 4.57241 178.612 2.07837C179.859 1.24702 182.542 0 185.905 0C191.195 0 195.805 2.90971 198.224 7.2176C199.358 9.25818 200 11.6011 200 14.0951C200 19.4233 197.053 23.8067 193.198 26.1496C191.271 27.3589 188.663 28.228 185.905 28.228ZM178.007 18.6675C181.975 25.5828 188.626 28.757 193.085 25.9985C197.015 23.4667 197.884 16.5891 193.84 9.5227C190.288 3.43875 183.638 -0.793557 178.687 2.22952C174.039 5.2526 174.757 13.037 178.007 18.6675Z" fill="white"/>
<path d="M148.058 27.1321C148.058 27.1321 150.212 25.6962 152.857 19.2343C154.86 14.473 157.316 6.91529 158.941 1.2848L158.563 0.982493C159.773 1.05807 161.738 1.09586 164.345 0.340088L171.563 23.5044C172.545 26.4897 174.775 27.1321 174.359 27.1321H165.328C166.121 26.4519 166.726 24.9782 164.685 18.4786H154.369C153.084 24.3736 155.994 27.1321 154.747 27.1321H148.058ZM154.407 18.2518H164.647C159.81 2.79634 159.508 2.00278 159.092 1.47374C157.732 6.15952 155.465 13.6038 154.407 18.2518Z" fill="white"/>
<path d="M139.629 27.7746C136.191 27.7746 133.659 26.4897 131.24 26.452C129.54 26.452 128.255 26.6409 126.479 27.2077C127.272 26.6031 128.822 25.6584 128.822 22.4086V4.648C128.822 1.02031 127.159 0.793579 127.159 0.793579H135.132C143.862 0.793579 150.21 4.15675 150.21 13.9062C150.21 21.8418 146.545 27.7746 139.629 27.7746ZM133.734 26.263C141.292 26.263 145.298 24.9404 145.298 14.2085C145.298 4.23233 141.179 1.24704 133.734 0.982522V26.263Z" fill="white"/>
<path d="M111.254 27.1322C111.405 27.0566 112.69 26.7165 112.69 23.2399V14.3219C112.69 11.1476 111.821 10.4674 110.952 10.014C113.597 10.014 115.826 8.69137 116.62 7.67108V15.3799C117.187 11.8656 119.794 8.12454 123.309 8.12454C127.654 8.12454 126.936 14.0195 123.309 14.0195C122.666 14.0195 122.213 13.9062 121.57 13.6039C123.233 12.0168 121.986 10.1651 120.966 10.1651C118.245 10.1651 116.62 14.3596 116.62 17.5717V23.2399C116.62 26.7165 117.867 27.0566 118.018 27.1322H111.254Z" fill="white"/>
<path d="M104.338 27.51C99.5012 27.51 95.5334 23.051 95.5334 17.5339C95.5334 13.8684 97.3851 10.8075 99.7279 9.33376C100.408 8.8803 101.995 8.04895 103.885 8.04895C108.533 8.04895 110.347 12.9992 109.969 17.7606H99.0855C101.126 23.4289 107.172 27.4722 110.422 23.2399C109.629 25.6962 107.323 27.51 104.338 27.51ZM98.8966 17.3827L108.306 16.2113C106.454 12.0923 102.978 7.36876 99.8035 9.48491C97.574 10.9965 98.0275 14.6997 98.8966 17.3827Z" fill="white"/>
<path d="M76.2306 36.3525C76.3818 36.3147 77.6666 35.9369 77.6666 32.4981V14.3596C77.6666 11.1854 76.7974 10.5052 75.9283 10.014C78.6113 10.014 80.8408 8.72915 81.6344 7.70886V10.2407C82.0878 9.71165 82.6546 9.25819 83.2971 8.8803C87.2271 6.76415 91.4594 10.2029 93.0087 14.5486C95.3894 19.9145 94.0668 27.2833 88.5874 27.4722C86.5846 27.5478 83.7127 26.452 81.6344 23.5422V32.4981C81.6344 35.9369 82.8814 36.3147 83.0325 36.3525H76.2306ZM82.239 19.2721C83.486 24.1846 86.2823 27.7745 88.3985 27.1321C90.5524 26.4897 91.1571 21.6528 89.91 16.7781C88.7386 12.2813 85.9045 7.8978 83.5616 8.99367C81.0675 10.1651 81.4454 16.1357 82.239 19.2721Z" fill="white"/>
<path d="M69.4281 27.51C64.5911 27.51 60.6234 23.051 60.6234 17.5339C60.6234 13.8684 62.475 10.8075 64.8179 9.33376C65.4981 8.8803 67.0852 8.04895 68.9746 8.04895C73.6226 8.04895 75.4364 12.9992 75.0586 17.7606H64.1755C66.216 23.4289 72.2622 27.4722 75.512 23.2399C74.7185 25.6962 72.4134 27.51 69.4281 27.51ZM63.9865 17.3827L73.3959 16.2113C71.5442 12.0923 68.0677 7.36876 64.8935 9.48491C62.6639 10.9965 63.1174 14.6997 63.9865 17.3827Z" fill="white"/>
<path d="M53.4123 27.51C48.5753 27.51 44.6075 23.051 44.6075 17.5339C44.6075 13.8684 46.4592 10.8075 48.8021 9.33376C49.4823 8.8803 51.0694 8.04895 52.9588 8.04895C57.6068 8.04895 59.4206 12.9992 59.0427 17.7606H48.1597C50.2002 23.4289 56.2464 27.4722 59.4962 23.2399C58.7026 25.6962 56.3975 27.51 53.4123 27.51ZM47.9707 17.3827L57.38 16.2113C55.5284 12.0923 52.0519 7.36876 48.8776 9.48491C46.6481 10.9965 47.1016 14.6997 47.9707 17.3827Z" fill="white"/>
<path d="M20.3222 11.3366C19.7176 9.22041 18.7351 8.578 18.0927 8.2757H25.2348C24.1389 8.9181 24.2145 10.3541 24.5923 11.7144C28.409 25.1294 28.4468 25.2049 28.7113 25.8096L31.8099 15.4555L30.6385 11.3366C29.9583 9.22041 29.0136 8.578 28.3712 8.2757H35.5132C34.4174 8.9181 34.4929 10.3541 34.8708 11.7144C38.6119 24.7893 38.6497 25.0538 38.952 25.6962C42.7686 13.6039 43.6755 9.33377 42.0506 8.2757H46.2451C44.847 9.14483 43.9778 10.4674 39.1031 25.9607C39.3299 26.3386 39.5188 26.5275 39.7833 26.6031C38.952 26.5653 37.1381 26.981 35.4376 28.3036L31.9233 15.8712L28.8624 26.0741C29.0892 26.3764 29.2781 26.5275 29.4671 26.6031C28.7113 26.5653 26.9352 26.9432 25.197 28.3036L20.3222 11.3366Z" fill="white"/>
<path d="M9.18262 27.699C5.02588 27.699 1.32261 25.9229 0.264535 25.016L1.52588e-05 16.3624C0.64242 20.368 4.3079 27.51 9.18262 27.51C12.2435 27.51 14.2085 26.263 14.2085 24.2602C14.2085 21.3505 11.0343 18.5542 7.74665 15.6822C4.3079 12.6214 0.831362 9.71166 0.831362 6.42407C0.831362 2.19176 3.62771 0.188965 9.5605 0.188965C11.5633 0.188965 15.2666 1.88945 16.6647 1.66272V10.2407C16.2869 6.15955 13.6039 0.377909 9.5605 0.377909C6.80194 0.377909 4.72358 1.54935 4.72358 3.62772C4.72358 6.12176 7.70887 8.76695 10.8453 11.7522C14.2085 14.9265 17.7228 18.2141 17.7228 21.4639C17.7228 25.6206 14.9265 27.699 9.18262 27.699Z" fill="white"/>
</svg>
